<svg width="35" height="35" viewBox="0 0 35 35" fill="none" xmlns="http://www.w3.org/2000/svg">
<path d="M33.25 4.61842C33.25 6.47875 31.742 7.98684 29.8816 7.98684C28.0212 7.98684 26.5132 6.47875 26.5132 4.61842C26.5132 2.75809 28.0212 1.25 29.8816 1.25C31.742 1.25 33.25 2.75809 33.25 4.61842Z" stroke="#00A0E3" stroke-width="2.5"/>
<path d="M31.5171 12.8802C31.5658 14.3696 31.5658 16.0905 31.5658 18.0915C31.5658 25.2369 31.5658 28.8098 29.346 31.0296C27.1262 33.2494 23.5533 33.2494 16.4079 33.2494C9.2624 33.2494 5.68965 33.2494 3.46982 31.0296C1.25 28.8098 1.25 25.2369 1.25 18.0915C1.25 10.946 1.25 7.37324 3.46982 5.15342C5.68965 2.93359 9.2624 2.93359 16.4079 2.93359C18.4089 2.93359 20.1298 2.93359 21.6192 2.98235" stroke="#00A0E3" stroke-width="2.5" stroke-linecap="round" stroke-linejoin="round"/>
<path d="M7.98682 21.4634L12.6906 16.7596C13.3484 16.1019 14.4148 16.1019 15.0725 16.7596L17.7433 19.4304C18.401 20.0881 19.4674 20.0881 20.1251 19.4304L24.8289 14.7266" stroke="#00A0E3" stroke-width="2.5" stroke-linecap="round" stroke-linejoin="round"/>
</svg>
