<svg width="28" height="28" viewBox="0 0 28 28" fill="none" xmlns="http://www.w3.org/2000/svg">
<path d="M2.9165 14.0003C2.9165 8.7756 2.9165 6.16323 4.53962 4.54011C6.16274 2.91699 8.77511 2.91699 13.9998 2.91699C19.2245 2.91699 21.8369 2.91699 23.4601 4.54011C25.0832 6.16323 25.0832 8.7756 25.0832 14.0003C25.0832 19.225 25.0832 21.8374 23.4601 23.4606C21.8369 25.0837 19.2245 25.0837 13.9998 25.0837C8.77511 25.0837 6.16274 25.0837 4.53962 23.4606C2.9165 21.8374 2.9165 19.225 2.9165 14.0003Z" stroke="#4D4D4D" stroke-width="1.5"/>
<path d="M2.91666 14H25.0833" stroke="#4D4D4D" stroke-width="1.5" stroke-linecap="round" stroke-linejoin="round"/>
<path d="M15.1665 8.16699H19.8332" stroke="#4D4D4D" stroke-width="1.5" stroke-linecap="round" stroke-linejoin="round"/>
<path d="M9.62484 9.62467C10.4303 9.62467 11.0832 8.97176 11.0832 8.16634C11.0832 7.36093 10.4303 6.70801 9.62484 6.70801C8.81942 6.70801 8.1665 7.36093 8.1665 8.16634C8.1665 8.97176 8.81942 9.62467 9.62484 9.62467Z" stroke="#4D4D4D" stroke-width="1.5" stroke-linecap="round" stroke-linejoin="round"/>
<path d="M9.62499 21.2917C10.4304 21.2917 11.0833 20.6387 11.0833 19.8333C11.0833 19.0279 10.4304 18.375 9.62499 18.375C8.81957 18.375 8.16666 19.0279 8.16666 19.8333C8.16666 20.6387 8.81957 21.2917 9.62499 21.2917Z" stroke="#4D4D4D" stroke-width="1.5" stroke-linecap="round" stroke-linejoin="round"/>
<path d="M15.1665 19.833H19.8332" stroke="#4D4D4D" stroke-width="1.5" stroke-linecap="round" stroke-linejoin="round"/>
</svg>
