<svg width="24" height="24" viewBox="0 0 24 24" fill="none" xmlns="http://www.w3.org/2000/svg">
<path fill-rule="evenodd" clip-rule="evenodd" d="M22.6667 8.22645H1.33333V22.6855H22.6667V8.22645ZM1.33333 6.91199C0.979711 6.91199 0.640573 7.05047 0.390524 7.29698C0.140476 7.54349 0 7.87783 0 8.22645V22.6855C0 23.0341 0.140476 23.3685 0.390524 23.615C0.640573 23.8615 0.979711 24 1.33333 24H22.6667C23.0203 24 23.3594 23.8615 23.6095 23.615C23.8595 23.3685 24 23.0341 24 22.6855V8.22645C24 7.87783 23.8595 7.54349 23.6095 7.29698C23.3594 7.05047 23.0203 6.91199 22.6667 6.91199H1.33333Z" fill="#4D4D4D"/>
<path fill-rule="evenodd" clip-rule="evenodd" d="M6.66621 11.5104C6.66621 11.3361 6.73644 11.1689 6.86147 11.0457C6.98649 10.9224 7.15606 10.8532 7.33287 10.8532H16.6662C16.843 10.8532 17.0126 10.9224 17.1376 11.0457C17.2626 11.1689 17.3329 11.3361 17.3329 11.5104C17.3329 11.6847 17.2626 11.8519 17.1376 11.9751C17.0126 12.0984 16.843 12.1676 16.6662 12.1676H7.33287C7.15606 12.1676 6.98649 12.0984 6.86147 11.9751C6.73644 11.8519 6.66621 11.6847 6.66621 11.5104ZM5.33287 15.4538C5.33287 15.2795 5.40311 15.1123 5.52814 14.989C5.65316 14.8658 5.82273 14.7966 5.99954 14.7966H17.9995C18.1764 14.7966 18.3459 14.8658 18.4709 14.989C18.596 15.1123 18.6662 15.2795 18.6662 15.4538C18.6662 15.6281 18.596 15.7953 18.4709 15.9185C18.3459 16.0418 18.1764 16.111 17.9995 16.111H5.99954C5.82273 16.111 5.65316 16.0418 5.52814 15.9185C5.40311 15.7953 5.33287 15.6281 5.33287 15.4538ZM6.66621 19.3972C6.66621 19.2229 6.73644 19.0557 6.86147 18.9324C6.98649 18.8092 7.15606 18.7399 7.33287 18.7399H16.6662C16.843 18.7399 17.0126 18.8092 17.1376 18.9324C17.2626 19.0557 17.3329 19.2229 17.3329 19.3972C17.3329 19.5715 17.2626 19.7386 17.1376 19.8619C17.0126 19.9851 16.843 20.0544 16.6662 20.0544H7.33287C7.15606 20.0544 6.98649 19.9851 6.86147 19.8619C6.73644 19.7386 6.66621 19.5715 6.66621 19.3972ZM14.3569 2.27632C14.0473 1.97108 13.6798 1.72895 13.2754 1.56375C12.8709 1.39855 12.4374 1.31352 11.9995 1.31352C11.5617 1.31352 11.1282 1.39855 10.7237 1.56375C10.3193 1.72895 9.95175 1.97108 9.64221 2.27632L4.47154 7.37511C4.34636 7.49852 4.17657 7.56785 3.99954 7.56785C3.82251 7.56785 3.65272 7.49852 3.52754 7.37511C3.40236 7.2517 3.33203 7.08432 3.33203 6.90979C3.33203 6.82337 3.3493 6.7378 3.38284 6.65796C3.41639 6.57812 3.46556 6.50558 3.52754 6.44447L8.70087 1.347C9.576 0.484515 10.7628 0 12.0002 0C13.2376 0 14.4244 0.484515 15.2995 1.347L20.4715 6.44579C20.5334 6.50689 20.5825 6.57942 20.616 6.65923C20.6494 6.73903 20.6666 6.82456 20.6666 6.91091C20.6665 6.99727 20.6492 7.08277 20.6156 7.16253C20.582 7.24229 20.5329 7.31475 20.4709 7.37577C20.4089 7.43679 20.3353 7.48517 20.2544 7.51817C20.1734 7.55116 20.0867 7.56811 19.9991 7.56804C19.9115 7.56798 19.8247 7.55091 19.7438 7.51781C19.6629 7.48471 19.5894 7.43622 19.5275 7.37511L14.3569 2.27632Z" fill="#4D4D4D"/>
</svg>
