<svg width="35" height="41" viewBox="0 0 35 41" fill="none" xmlns="http://www.w3.org/2000/svg">
<path d="M26.6618 1.25V5.01471M17.25 1.25V5.01471M7.83826 1.25V5.01471" stroke="#00A0E3" stroke-width="2.5" stroke-linecap="round" stroke-linejoin="round"/>
<path d="M1.25 21.9563V14.4269C1.25 9.10283 1.25 6.44078 2.90399 4.7868C4.55797 3.13281 7.22001 3.13281 12.5441 3.13281H21.9559C27.2799 3.13281 29.942 3.13281 31.596 4.7868C33.25 6.44078 33.25 9.10283 33.25 14.4269V21.9563C33.25 27.2804 33.25 29.9424 31.596 31.5964C29.942 33.2505 27.2799 33.2505 21.9559 33.2505H12.5441C7.22001 33.2505 4.55797 33.2505 2.90399 31.5964C1.25 29.9424 1.25 27.2804 1.25 21.9563Z" stroke="#00A0E3" stroke-width="2.5"/>
<path d="M1.25 27.6034V14.4269C1.25 9.10283 1.25 6.44078 2.90399 4.7868C4.55797 3.13281 7.22001 3.13281 12.5441 3.13281H21.9559C27.2799 3.13281 29.942 3.13281 31.596 4.7868C33.25 6.44078 33.25 9.10283 33.25 14.4269V27.6034C33.25 32.9274 33.25 35.5895 31.596 37.2435C29.942 38.8975 27.2799 38.8975 21.9559 38.8975H12.5441C7.22001 38.8975 4.55797 38.8975 2.90399 37.2435C1.25 35.5895 1.25 32.9274 1.25 27.6034Z" stroke="#00A0E3" stroke-width="2.5"/>
<path d="M9.72058 25.7206H17.25M9.72058 16.3088H24.7794" stroke="#00A0E3" stroke-width="2.5" stroke-linecap="round"/>
</svg>
