<svg width="28" height="28" viewBox="0 0 28 28" fill="none" xmlns="http://www.w3.org/2000/svg">
<path d="M2.9165 14.0003C2.9165 8.77558 2.9165 6.16322 4.53962 4.54011C6.16274 2.91699 8.77511 2.91699 13.9998 2.91699C19.2245 2.91699 21.8369 2.91699 23.4601 4.54011C25.0832 6.16322 25.0832 8.77558 25.0832 14.0003C25.0832 19.2251 25.0832 21.8374 23.4601 23.4606C21.8369 25.0836 19.2245 25.0836 13.9998 25.0836C8.77511 25.0836 6.16274 25.0836 4.53962 23.4606C2.9165 21.8374 2.9165 19.2251 2.9165 14.0003Z" stroke="#4D4D4D" stroke-width="1.5"/>
<path d="M2.91666 10.5H25.0833" stroke="#4D4D4D" stroke-width="1.5" stroke-linejoin="round"/>
<path d="M8.16644 7H8.17842" stroke="#4D4D4D" stroke-width="1.5" stroke-linecap="round" stroke-linejoin="round"/>
<path d="M12.8331 7H12.8451" stroke="#4D4D4D" stroke-width="1.5" stroke-linecap="round" stroke-linejoin="round"/>
<path d="M19.8333 19.8333C19.8333 16.6117 17.2216 14 14 14C10.7783 14 8.16666 16.6117 8.16666 19.8333" stroke="#4D4D4D" stroke-width="1.5" stroke-linecap="round"/>
<path d="M14.8248 17.8418L13.1749 19.4917" stroke="#4D4D4D" stroke-width="1.5" stroke-linecap="round" stroke-linejoin="round"/>
</svg>
