<svg width="13" height="18" viewBox="0 0 13 18" fill="none" xmlns="http://www.w3.org/2000/svg">
<path d="M11.673 9C11.0043 8.45129 10.1542 8.16002 9.28193 8.18075H3.67493C3.41928 8.18707 3.16496 8.14283 2.92719 8.05067C2.68942 7.95851 2.47309 7.82034 2.29115 7.64441C2.10921 7.46849 1.9654 7.25843 1.86833 7.02682C1.77126 6.79522 1.72293 6.54681 1.72623 6.29649C1.71999 6.19906 1.71999 6.10134 1.72623 6.0039C1.80161 5.5566 2.0412 5.15162 2.40001 4.86501C2.75882 4.57841 3.21217 4.42988 3.67493 4.44733H9.19824C9.64879 4.44695 10.0848 4.60323 10.4286 4.88832C10.7724 5.17342 11.0015 5.56878 11.0752 6.0039H12.8685C12.7934 5.10148 12.3742 4.25977 11.6942 3.6461C11.0141 3.03244 10.1231 2.69176 9.19824 2.69181H7.30931V0H5.81491V2.69181H3.67493C2.75005 2.69176 1.85902 3.03244 1.179 3.6461C0.498969 4.25977 0.0797458 5.10148 0.00467458 6.0039C-0.00155819 6.10134 -0.00155819 6.19906 0.00467458 6.29649C0.00467458 6.76833 0.0996084 7.23554 0.284056 7.67146C0.468503 8.10738 0.738852 8.50347 1.07967 8.83711C1.76797 9.51092 2.70152 9.88947 3.67493 9.88947H9.3417C9.59532 9.88322 9.84766 9.92673 10.0838 10.0175C10.32 10.1082 10.5352 10.2442 10.7168 10.4177C10.8985 10.5911 11.0428 10.7983 11.1413 11.0272C11.2398 11.2561 11.2905 11.502 11.2904 11.7503C11.3019 11.8827 11.3019 12.0158 11.2904 12.1482C11.1955 12.56 10.9604 12.928 10.6236 13.1917C10.2869 13.4554 9.86857 13.5992 9.43734 13.5995H3.81839C3.38716 13.5992 2.96885 13.4554 2.63212 13.1917C2.29538 12.928 2.06025 12.56 1.96533 12.1482H0.160093C0.262833 13.0276 0.692461 13.8392 1.36711 14.4284C2.04176 15.0176 2.91427 15.3433 3.81839 15.3433H5.81491V18H7.30931V15.3433H9.3417C10.2458 15.3433 11.1183 15.0176 11.793 14.4284C12.4676 13.8392 12.8973 13.0276 13 12.1482V11.7503C12.9986 11.2246 12.8789 10.7057 12.6496 10.2304C12.4202 9.75506 12.0868 9.33499 11.673 9Z" fill="black"/>
</svg>
