<svg width="38" height="38" viewBox="0 0 38 38" fill="none" xmlns="http://www.w3.org/2000/svg">
<rect width="38" height="38" rx="5" fill="#FCFCFC"/>
<path d="M7.9165 19.0003C7.9165 13.7756 7.9165 11.1632 9.53962 9.54011C11.1627 7.91699 13.7751 7.91699 18.9998 7.91699C24.2245 7.91699 26.8369 7.91699 28.4601 9.54011C30.0832 11.1632 30.0832 13.7756 30.0832 19.0003C30.0832 24.225 30.0832 26.8374 28.4601 28.4606C26.8369 30.0837 24.2245 30.0837 18.9998 30.0837C13.7751 30.0837 11.1627 30.0837 9.53962 28.4606C7.9165 26.8374 7.9165 24.225 7.9165 19.0003Z" stroke="#4D4D4D" stroke-width="1.5"/>
<path d="M7.91666 19H30.0833" stroke="#4D4D4D" stroke-width="1.5" stroke-linecap="round" stroke-linejoin="round"/>
<path d="M20.1665 13.167H24.8332" stroke="#4D4D4D" stroke-width="1.5" stroke-linecap="round" stroke-linejoin="round"/>
<path d="M14.6248 14.6247C15.4303 14.6247 16.0832 13.9718 16.0832 13.1663C16.0832 12.3609 15.4303 11.708 14.6248 11.708C13.8194 11.708 13.1665 12.3609 13.1665 13.1663C13.1665 13.9718 13.8194 14.6247 14.6248 14.6247Z" stroke="#4D4D4D" stroke-width="1.5" stroke-linecap="round" stroke-linejoin="round"/>
<path d="M14.625 26.2917C15.4304 26.2917 16.0833 25.6387 16.0833 24.8333C16.0833 24.0279 15.4304 23.375 14.625 23.375C13.8196 23.375 13.1667 24.0279 13.1667 24.8333C13.1667 25.6387 13.8196 26.2917 14.625 26.2917Z" stroke="#4D4D4D" stroke-width="1.5" stroke-linecap="round" stroke-linejoin="round"/>
<path d="M20.1665 24.833H24.8332" stroke="#4D4D4D" stroke-width="1.5" stroke-linecap="round" stroke-linejoin="round"/>
</svg>
