<svg width="24" height="24" viewBox="0 0 24 24" fill="none" xmlns="http://www.w3.org/2000/svg">
<path d="M22.3695 1.89149L21.6085 1.1305C21.1012 0.623168 20.2787 0.623168 19.7713 1.13049L15.6783 5.22343C15.1343 5.76749 14.7635 6.46043 14.6125 7.21491L14.1944 9.30555L16.285 8.88742C17.0395 8.73652 17.7325 8.36568 18.2765 7.82162L22.3695 3.72869C22.8768 3.22136 22.8768 2.39881 22.3695 1.89149Z" stroke="#4D4D4D" stroke-width="1.5" stroke-linejoin="round"/>
<path d="M13.8159 20.8638C13.5833 20.3023 13.5833 19.5905 13.5833 18.1667C13.5833 16.7429 13.5833 16.0311 13.8159 15.4696C14.126 14.7209 14.7209 14.126 15.4696 13.816C16.0311 13.5834 16.7429 13.5834 18.1667 13.5834C19.5904 13.5834 20.3023 13.5834 20.8638 13.816C21.6125 14.126 22.2073 14.7209 22.5174 15.4696C22.75 16.0311 22.75 16.7429 22.75 18.1667C22.75 19.5905 22.75 20.3023 22.5174 20.8638C22.2073 21.6125 21.6125 22.2074 20.8638 22.5175C20.3023 22.75 19.5904 22.75 18.1667 22.75C16.7429 22.75 16.0311 22.75 15.4696 22.5175C14.7209 22.2074 14.126 21.6125 13.8159 20.8638Z" stroke="#4D4D4D" stroke-width="1.5" stroke-linecap="square" stroke-linejoin="round"/>
<path d="M0.982589 20.8638C0.75 20.3023 0.75 19.5905 0.75 18.1667C0.75 16.7429 0.75 16.0311 0.982589 15.4696C1.29272 14.7209 1.88755 14.126 2.63624 13.816C3.19777 13.5834 3.90963 13.5834 5.33333 13.5834C6.75704 13.5834 7.4689 13.5834 8.03042 13.816C8.77912 14.126 9.374 14.7209 9.68408 15.4696C9.91667 16.0311 9.91667 16.7429 9.91667 18.1667C9.91667 19.5905 9.91667 20.3023 9.68408 20.8638C9.374 21.6125 8.77912 22.2074 8.03042 22.5175C7.4689 22.75 6.75704 22.75 5.33333 22.75C3.90963 22.75 3.19777 22.75 2.63624 22.5175C1.88755 22.2074 1.29272 21.6125 0.982589 20.8638Z" stroke="#4D4D4D" stroke-width="1.5" stroke-linecap="square" stroke-linejoin="round"/>
<path d="M0.982589 8.03042C0.75 7.4689 0.75 6.75704 0.75 5.33333C0.75 3.90963 0.75 3.19777 0.982589 2.63624C1.29272 1.88755 1.88755 1.29272 2.63624 0.982589C3.19777 0.75 3.90963 0.75 5.33333 0.75C6.75704 0.75 7.4689 0.75 8.03042 0.982589C8.77912 1.29272 9.374 1.88755 9.68408 2.63624C9.91667 3.19777 9.91667 3.90963 9.91667 5.33333C9.91667 6.75704 9.91667 7.4689 9.68408 8.03042C9.374 8.77912 8.77912 9.374 8.03042 9.68408C7.4689 9.91667 6.75704 9.91667 5.33333 9.91667C3.90963 9.91667 3.19777 9.91667 2.63624 9.68408C1.88755 9.374 1.29272 8.77912 0.982589 8.03042Z" stroke="#4D4D4D" stroke-width="1.5" stroke-linecap="square" stroke-linejoin="round"/>
</svg>
