<svg width="38" height="38" viewBox="0 0 38 38" fill="none" xmlns="http://www.w3.org/2000/svg">
<rect width="38" height="38" rx="5" fill="#FCFCFC"/>
<path d="M29.6195 9.14149L28.8585 8.3805C28.3512 7.87317 27.5287 7.87317 27.0213 8.38049L22.9283 12.4734C22.3843 13.0175 22.0135 13.7104 21.8625 14.4649L21.4444 16.5556L23.535 16.1374C24.2895 15.9865 24.9825 15.6157 25.5265 15.0716L29.6195 10.9787C30.1268 10.4714 30.1268 9.64881 29.6195 9.14149Z" stroke="#4D4D4D" stroke-width="1.5" stroke-linejoin="round"/>
<path d="M21.0659 28.1138C20.8333 27.5523 20.8333 26.8405 20.8333 25.4167C20.8333 23.9929 20.8333 23.2811 21.0659 22.7196C21.376 21.9709 21.9709 21.376 22.7196 21.066C23.2811 20.8334 23.9929 20.8334 25.4167 20.8334C26.8404 20.8334 27.5523 20.8334 28.1138 21.066C28.8625 21.376 29.4573 21.9709 29.7674 22.7196C30 23.2811 30 23.9929 30 25.4167C30 26.8405 30 27.5523 29.7674 28.1138C29.4573 28.8625 28.8625 29.4574 28.1138 29.7675C27.5523 30 26.8404 30 25.4167 30C23.9929 30 23.2811 30 22.7196 29.7675C21.9709 29.4574 21.376 28.8625 21.0659 28.1138Z" stroke="#4D4D4D" stroke-width="1.5" stroke-linecap="square" stroke-linejoin="round"/>
<path d="M8.23259 28.1138C8 27.5523 8 26.8405 8 25.4167C8 23.9929 8 23.2811 8.23259 22.7196C8.54272 21.9709 9.13755 21.376 9.88624 21.066C10.4478 20.8334 11.1596 20.8334 12.5833 20.8334C14.007 20.8334 14.7189 20.8334 15.2804 21.066C16.0291 21.376 16.624 21.9709 16.9341 22.7196C17.1667 23.2811 17.1667 23.9929 17.1667 25.4167C17.1667 26.8405 17.1667 27.5523 16.9341 28.1138C16.624 28.8625 16.0291 29.4574 15.2804 29.7675C14.7189 30 14.007 30 12.5833 30C11.1596 30 10.4478 30 9.88624 29.7675C9.13755 29.4574 8.54272 28.8625 8.23259 28.1138Z" stroke="#4D4D4D" stroke-width="1.5" stroke-linecap="square" stroke-linejoin="round"/>
<path d="M8.23259 15.2804C8 14.7189 8 14.007 8 12.5833C8 11.1596 8 10.4478 8.23259 9.88624C8.54272 9.13755 9.13755 8.54272 9.88624 8.23259C10.4478 8 11.1596 8 12.5833 8C14.007 8 14.7189 8 15.2804 8.23259C16.0291 8.54272 16.624 9.13755 16.9341 9.88624C17.1667 10.4478 17.1667 11.1596 17.1667 12.5833C17.1667 14.007 17.1667 14.7189 16.9341 15.2804C16.624 16.0291 16.0291 16.624 15.2804 16.9341C14.7189 17.1667 14.007 17.1667 12.5833 17.1667C11.1596 17.1667 10.4478 17.1667 9.88624 16.9341C9.13755 16.624 8.54272 16.0291 8.23259 15.2804Z" stroke="#4D4D4D" stroke-width="1.5" stroke-linecap="square" stroke-linejoin="round"/>
</svg>
