<svg width="38" height="38" viewBox="0 0 38 38" fill="none" xmlns="http://www.w3.org/2000/svg">
<rect width="38" height="38" rx="5" fill="#FCFCFC"/>
<path d="M10.0377 27.9623C8.5 26.4247 8.5 23.9497 8.5 19C8.5 14.0503 8.5 11.5754 10.0377 10.0377C11.5754 8.5 14.0503 8.5 19 8.5C23.9497 8.5 26.4247 8.5 27.9623 10.0377C29.5 11.5754 29.5 14.0503 29.5 19C29.5 23.9497 29.5 26.4247 27.9623 27.9623C26.4247 29.5 23.9497 29.5 19 29.5C14.0503 29.5 11.5754 29.5 10.0377 27.9623Z" stroke="#4D4D4D" stroke-width="1.5" stroke-linecap="round" stroke-linejoin="round"/>
<path d="M13.1665 21.3337L16.4249 18.0753C16.8805 17.6197 17.6192 17.6197 18.0748 18.0753L19.9249 19.9254C20.3805 20.381 21.1192 20.381 21.5748 19.9254L24.8332 16.667" stroke="#4D4D4D" stroke-width="1.5" stroke-linecap="round" stroke-linejoin="round"/>
</svg>
