<svg width="37" height="37" viewBox="0 0 37 37" fill="none" xmlns="http://www.w3.org/2000/svg">
<path d="M16.5611 33.5526H14.1793C8.08439 33.5526 5.03692 33.5526 3.14345 31.6231C1.25 29.6939 1.25 26.5885 1.25 20.3779C1.25 14.1672 1.25 11.0619 3.14345 9.13252C5.03692 7.20313 8.08439 7.20312 14.1793 7.20312H20.644C26.7389 7.20312 29.7865 7.20313 31.68 9.13252C33.1367 10.617 33.4726 12.7975 33.5502 16.5529" stroke="#00A0E3" stroke-width="2.5" stroke-linecap="round" stroke-linejoin="round"/>
<path d="M27.6 31.0454H27.6138M27.6149 27.603V24.1605M35.25 27.603C35.25 31.8279 31.825 35.2528 27.6 35.2528C23.375 35.2528 19.95 31.8279 19.95 27.603C19.95 23.378 23.375 19.9531 27.6 19.9531C31.825 19.9531 35.25 23.378 35.25 27.603Z" stroke="#00A0E3" stroke-width="2.5" stroke-linecap="round"/>
<path d="M25.0501 7.19988L24.8813 6.67449C24.0396 4.05646 23.6188 2.74745 22.6172 1.99872C21.6154 1.25 20.285 1.25 17.6238 1.25H17.1763C14.5152 1.25 13.1846 1.25 12.1829 1.99872C11.1812 2.74745 10.7604 4.05646 9.91888 6.67449L9.75 7.19988" stroke="#00A0E3" stroke-width="2.5" stroke-linecap="round" stroke-linejoin="round"/>
</svg>
