<svg width="20" height="22" viewBox="0 0 20 22" fill="none" xmlns="http://www.w3.org/2000/svg">
<path d="M13.25 17.25C13.25 19.183 11.683 20.75 9.75 20.75C7.817 20.75 6.25 19.183 6.25 17.25" stroke="#4D4D4D" stroke-width="1.5" stroke-linecap="round" stroke-linejoin="round"/>
<path d="M16.75 10.25V11.5058C16.75 12.3014 17.0661 13.0645 17.6287 13.6271L18.2319 14.2303C18.5636 14.5621 18.75 15.012 18.75 15.4811C18.75 16.458 17.958 17.25 16.9811 17.25H2.51887C1.54195 17.25 0.75 16.458 0.75 15.4811C0.75 15.012 0.93636 14.5621 1.26809 14.2303L1.87132 13.6271C2.43393 13.0645 2.75 12.3014 2.75 11.5058V8.75C2.75 4.88401 5.88401 1.75 9.75 1.75" stroke="#4D4D4D" stroke-width="1.5" stroke-linecap="round" stroke-linejoin="round"/>
<path d="M18.75 4.25C18.75 2.317 17.183 0.75 15.25 0.75C13.317 0.75 11.75 2.317 11.75 4.25C11.75 6.183 13.317 7.75 15.25 7.75C17.183 7.75 18.75 6.183 18.75 4.25Z" stroke="#4D4D4D" stroke-width="1.5" stroke-linecap="round" stroke-linejoin="round"/>
</svg>
