<svg width="22" height="22" viewBox="0 0 22 22" fill="none" xmlns="http://www.w3.org/2000/svg">
<path d="M18.4771 15.1896C18.3955 15.0914 18.3155 14.9932 18.2369 14.8984C17.1565 13.5916 16.5029 12.8029 16.5029 9.10364C16.5029 7.18843 16.0447 5.61697 15.1416 4.43838C14.4756 3.56769 13.5755 2.90719 12.389 2.41906C12.3737 2.41057 12.3601 2.39943 12.3487 2.38616C11.922 0.957114 10.7541 0 9.43704 0C8.11993 0 6.9526 0.957115 6.52585 2.38468C6.51446 2.39746 6.50101 2.40825 6.48607 2.4166C3.71729 3.5564 2.3717 5.74318 2.3717 9.10217C2.3717 12.8029 1.71904 13.5916 0.637655 14.8969C0.55908 14.9917 0.479032 15.0879 0.397511 15.1881C0.186931 15.4421 0.0535117 15.751 0.013042 16.0784C-0.0274277 16.4058 0.0267465 16.738 0.169153 17.0356C0.472157 17.674 1.11794 18.0703 1.85507 18.0703H17.0244C17.7581 18.0703 18.3995 17.6745 18.7034 17.039C18.8465 16.7413 18.9012 16.4089 18.861 16.0811C18.8209 15.7534 18.6877 15.444 18.4771 15.1896Z" fill="#00A0E3"/>
<circle cx="16" cy="6" r="5" fill="#F34040" stroke="#FCFCFC" stroke-width="2"/>
<path d="M9.43858 22.0017C10.1482 22.0011 10.8445 21.8085 11.4535 21.4443C12.0625 21.08 12.5616 20.5577 12.8978 19.9328C12.9137 19.9028 12.9215 19.8693 12.9205 19.8354C12.9196 19.8016 12.9099 19.7685 12.8924 19.7395C12.8749 19.7105 12.8502 19.6865 12.8207 19.6699C12.7912 19.6532 12.7579 19.6445 12.724 19.6445H6.15416C6.12024 19.6444 6.08686 19.6531 6.05728 19.6697C6.02771 19.6863 6.00293 19.7103 5.98538 19.7393C5.96783 19.7683 5.95809 19.8014 5.95711 19.8353C5.95614 19.8692 5.96396 19.9028 5.97982 19.9328C6.31599 20.5577 6.815 21.0799 7.42393 21.4441C8.03286 21.8084 8.72902 22.0011 9.43858 22.0017Z" fill="#00A0E3"/>
</svg>
