<svg width="31" height="36" viewBox="0 0 31 36" fill="none" xmlns="http://www.w3.org/2000/svg">
<path d="M1 13.5266C1 7.62159 1 4.66912 2.74272 2.83468C4.48542 1.00024 7.29029 1.00024 12.9 1.00024H18C23.6097 1.00024 26.4145 1.00024 28.1573 2.83468C29.9 4.66912 29.9 7.62159 29.9 13.5266V22.474C29.9 28.3789 29.9 31.3313 28.1573 33.1658C26.4145 35.0002 23.6097 35.0002 18 35.0002H12.9C7.29029 35.0002 4.48542 35.0002 2.74272 33.1658C1 31.3313 1 28.3789 1 22.474V13.5266Z" stroke="#E70D0D" stroke-width="2" stroke-linecap="round" stroke-linejoin="round"/>
<path d="M18 16.303H23.95" stroke="#E70D0D" stroke-width="2" stroke-linecap="round"/>
<path d="M8.6488 19.7055C8.6488 19.7055 11.3488 15.4555 13.7488 14.6055" stroke="#E70D0D" stroke-width="2" stroke-linecap="round" stroke-linejoin="round"/>
<path d="M13.2658 20.1092C13.2658 20.1092 9.54923 16.7122 9.1289 14.2011" stroke="#E70D0D" stroke-width="2" stroke-linecap="round" stroke-linejoin="round"/>
<path d="M18 26.5002H23.95" stroke="#E70D0D" stroke-width="2" stroke-linecap="round"/>
<path d="M8.65131 1.00024L8.79105 1.83868C9.13026 3.87399 9.29987 4.89165 10.0132 5.49595C10.7266 6.10025 11.7583 6.10025 13.8217 6.10025H17.0809C19.1444 6.10025 20.1761 6.10025 20.8894 5.49595C21.6027 4.89165 21.7724 3.87399 22.1116 1.83868L22.2513 1.00024" stroke="#E70D0D" stroke-width="2" stroke-linecap="round" stroke-linejoin="round"/>
<path d="M8.65131 26.5002H10.3513" stroke="#E70D0D" stroke-width="2" stroke-linecap="round" stroke-linejoin="round"/>
</svg>
