<svg width="25" height="25" viewBox="0 0 25 25" fill="none" xmlns="http://www.w3.org/2000/svg">
<path d="M8.33333 0C7.44928 0 6.60143 0.309873 5.97631 0.86145C5.35119 1.41303 5 2.16113 5 2.94118V16.1765H6.66667V2.94118C6.66667 2.55115 6.84226 2.1771 7.15482 1.90131C7.46738 1.62552 7.89131 1.47059 8.33333 1.47059H15V6.61765C15 7.20268 15.2634 7.76376 15.7322 8.17744C16.2011 8.59112 16.837 8.82353 17.5 8.82353H23.3333V20.5882C23.3333 20.9783 23.1577 21.3523 22.8452 21.6281C22.5326 21.9039 22.1087 22.0588 21.6667 22.0588H16.6083C16.525 22.5779 16.3517 23.0735 16.105 23.5294H21.6667C22.5507 23.5294 23.3986 23.2195 24.0237 22.668C24.6488 22.1164 25 21.3683 25 20.5882V7.96176C24.9994 7.37693 24.7356 6.81623 24.2667 6.40294L17.7433 0.645588C17.2747 0.232326 16.6392 0.000124825 15.9767 0H8.33333ZM22.9883 7.35294H17.5C17.279 7.35294 17.067 7.27547 16.9107 7.13758C16.7545 6.99968 16.6667 6.81266 16.6667 6.61765V1.775L22.9883 7.35294ZM4.16667 17.6471C3.0616 17.6471 2.00179 18.0344 1.22039 18.7239C0.438987 19.4133 0 20.3485 0 21.3235C0 22.2986 0.438987 23.2337 1.22039 23.9232C2.00179 24.6127 3.0616 25 4.16667 25H5C5.22101 25 5.43297 24.9225 5.58926 24.7846C5.74554 24.6467 5.83333 24.4597 5.83333 24.2647C5.83333 24.0697 5.74554 23.8827 5.58926 23.7448C5.43297 23.6069 5.22101 23.5294 5 23.5294H4.16667C3.50363 23.5294 2.86774 23.297 2.3989 22.8833C1.93006 22.4696 1.66667 21.9086 1.66667 21.3235C1.66667 20.7385 1.93006 20.1774 2.3989 19.7637C2.86774 19.3501 3.50363 19.1176 4.16667 19.1176H5C5.22101 19.1176 5.43297 19.0402 5.58926 18.9023C5.74554 18.7644 5.83333 18.5774 5.83333 18.3824C5.83333 18.1873 5.74554 18.0003 5.58926 17.8624C5.43297 17.7245 5.22101 17.6471 5 17.6471H4.16667ZM10 17.6471C9.77899 17.6471 9.56703 17.7245 9.41074 17.8624C9.25446 18.0003 9.16667 18.1873 9.16667 18.3824C9.16667 18.5774 9.25446 18.7644 9.41074 18.9023C9.56703 19.0402 9.77899 19.1176 10 19.1176H10.8333C11.4964 19.1176 12.1323 19.3501 12.6011 19.7637C13.0699 20.1774 13.3333 20.7385 13.3333 21.3235C13.3333 21.9086 13.0699 22.4696 12.6011 22.8833C12.1323 23.297 11.4964 23.5294 10.8333 23.5294H10C9.77899 23.5294 9.56703 23.6069 9.41074 23.7448C9.25446 23.8827 9.16667 24.0697 9.16667 24.2647C9.16667 24.4597 9.25446 24.6467 9.41074 24.7846C9.56703 24.9225 9.77899 25 10 25H10.8333C11.9384 25 12.9982 24.6127 13.7796 23.9232C14.561 23.2337 15 22.2986 15 21.3235C15 20.3485 14.561 19.4133 13.7796 18.7239C12.9982 18.0344 11.9384 17.6471 10.8333 17.6471H10ZM3.33333 21.3235C3.33333 21.1285 3.42113 20.9415 3.57741 20.8036C3.73369 20.6657 3.94565 20.5882 4.16667 20.5882H10.8333C11.0543 20.5882 11.2663 20.6657 11.4226 20.8036C11.5789 20.9415 11.6667 21.1285 11.6667 21.3235C11.6667 21.5185 11.5789 21.7056 11.4226 21.8435C11.2663 21.9814 11.0543 22.0588 10.8333 22.0588H4.16667C3.94565 22.0588 3.73369 21.9814 3.57741 21.8435C3.42113 21.7056 3.33333 21.5185 3.33333 21.3235Z" fill="#4D4D4D"/>
</svg>
