<svg width="31" height="36" viewBox="0 0 31 36" fill="none" xmlns="http://www.w3.org/2000/svg">
<path d="M0.76001 13.2863C0.76001 7.38136 0.760009 4.42888 2.50273 2.59445C4.24543 0.76001 7.0503 0.76001 12.66 0.76001H17.76C23.3697 0.76001 26.1745 0.76001 27.9173 2.59445C29.66 4.42888 29.66 7.38136 29.66 13.2863V22.2337C29.66 28.1387 29.66 31.0911 27.9173 32.9255C26.1745 34.76 23.3697 34.76 17.76 34.76H12.66C7.0503 34.76 4.24543 34.76 2.50273 32.9255C0.760009 31.0911 0.76001 28.1387 0.76001 22.2337V13.2863Z" stroke="#FFC107" stroke-width="1.52" stroke-linecap="round" stroke-linejoin="round"/>
<path d="M17.76 16.0627H23.71" stroke="#FFC107" stroke-width="1.52" stroke-linecap="round"/>
<path d="M8.4093 19.4652C8.4093 19.4652 11.1094 15.2152 13.5094 14.3652" stroke="#FFC107" stroke-width="1.52" stroke-linecap="round" stroke-linejoin="round"/>
<path d="M17.76 26.26H23.71" stroke="#FFC107" stroke-width="1.52" stroke-linecap="round"/>
<path d="M8.41132 0.76001L8.55106 1.59845C8.89027 3.63376 9.05988 4.65141 9.77324 5.25571C10.4866 5.86001 11.5183 5.86001 13.5817 5.86001H16.8409C18.9044 5.86001 19.9361 5.86001 20.6494 5.25571C21.3628 4.65141 21.5324 3.63376 21.8716 1.59845L22.0113 0.76001" stroke="#FFC107" stroke-width="1.52" stroke-linecap="round" stroke-linejoin="round"/>
<path d="M8.41132 26.26H10.1113" stroke="#FFC107" stroke-width="1.52" stroke-linecap="round" stroke-linejoin="round"/>
</svg>
