<svg width="44" height="35" viewBox="0 0 44 35" fill="none" xmlns="http://www.w3.org/2000/svg">
<path d="M11.9141 33.2511C11.9141 31.1912 12.6149 29.1076 14.3267 27.9616C16.3796 26.5872 18.8526 25.7849 21.5142 25.7849C24.1758 25.7849 26.6488 26.5872 28.7017 27.9616C30.4135 29.1076 31.1143 31.1912 31.1143 33.2511" stroke="#00A0E3" stroke-width="2.5" stroke-linecap="round" stroke-linejoin="round"/>
<path d="M21.5146 20.4508C24.4601 20.4508 26.848 18.0632 26.848 15.1179C26.848 12.1726 24.4601 9.78491 21.5146 9.78491C18.569 9.78491 16.1812 12.1726 16.1812 15.1179C16.1812 18.0632 18.569 20.4508 21.5146 20.4508Z" stroke="#00A0E3" stroke-width="2.5" stroke-linecap="round" stroke-linejoin="round"/>
<path d="M33.25 15.113C35.6182 15.113 37.8186 15.917 39.6445 17.294C41.1923 18.4613 41.7834 20.4355 41.7834 22.374V22.5792" stroke="#00A0E3" stroke-width="2.5" stroke-linecap="round" stroke-linejoin="round"/>
<path d="M33.2497 9.78273C35.6061 9.78273 37.5164 7.87261 37.5164 5.51637C37.5164 3.16012 35.6061 1.25 33.2497 1.25C30.8932 1.25 28.983 3.16012 28.983 5.51637C28.983 7.87261 30.8932 9.78273 33.2497 9.78273Z" stroke="#00A0E3" stroke-width="2.5" stroke-linecap="round" stroke-linejoin="round"/>
<path d="M9.78344 15.113C7.41513 15.113 5.21476 15.917 3.38882 17.294C1.84107 18.4613 1.25 20.4355 1.25 22.374V22.5792" stroke="#00A0E3" stroke-width="2.5" stroke-linecap="round" stroke-linejoin="round"/>
<path d="M9.78376 9.78273C12.1402 9.78273 14.0505 7.87261 14.0505 5.51637C14.0505 3.16012 12.1402 1.25 9.78376 1.25C7.42732 1.25 5.51704 3.16012 5.51704 5.51637C5.51704 7.87261 7.42732 9.78273 9.78376 9.78273Z" stroke="#00A0E3" stroke-width="2.5" stroke-linecap="round" stroke-linejoin="round"/>
</svg>
