<svg width="22" height="22" viewBox="0 0 22 22" fill="none" xmlns="http://www.w3.org/2000/svg">
<path d="M3 10C3.79565 10 4.55871 10.3161 5.12132 10.8787C5.68393 11.4413 6 12.2044 6 13V19C6 19.7956 5.68393 20.5587 5.12132 21.1213C4.55871 21.6839 3.79565 22 3 22C2.20435 22 1.44129 21.6839 0.87868 21.1213C0.316071 20.5587 0 19.7956 0 19V13C0 12.2044 0.316071 11.4413 0.87868 10.8787C1.44129 10.3161 2.20435 10 3 10ZM11 0C11.7956 0 12.5587 0.316071 13.1213 0.87868C13.6839 1.44129 14 2.20435 14 3V19C14 19.394 13.9224 19.7841 13.7716 20.1481C13.6209 20.512 13.3999 20.8427 13.1213 21.1213C12.8427 21.3999 12.512 21.6209 12.1481 21.7716C11.7841 21.9224 11.394 22 11 22C10.606 22 10.2159 21.9224 9.85195 21.7716C9.48797 21.6209 9.15726 21.3999 8.87868 21.1213C8.6001 20.8427 8.37913 20.512 8.22836 20.1481C8.0776 19.7841 8 19.394 8 19V3C8 2.20435 8.31607 1.44129 8.87868 0.87868C9.44129 0.316071 10.2044 0 11 0ZM19 5C19.7956 5 20.5587 5.31607 21.1213 5.87868C21.6839 6.44129 22 7.20435 22 8V19C22 19.394 21.9224 19.7841 21.7716 20.1481C21.6209 20.512 21.3999 20.8427 21.1213 21.1213C20.8427 21.3999 20.512 21.6209 20.1481 21.7716C19.7841 21.9224 19.394 22 19 22C18.606 22 18.2159 21.9224 17.8519 21.7716C17.488 21.6209 17.1573 21.3999 16.8787 21.1213C16.6001 20.8427 16.3791 20.512 16.2284 20.1481C16.0776 19.7841 16 19.394 16 19V8C16 7.20435 16.3161 6.44129 16.8787 5.87868C17.4413 5.31607 18.2044 5 19 5ZM3 11.5C2.60218 11.5 2.22064 11.658 1.93934 11.9393C1.65804 12.2206 1.5 12.6022 1.5 13V19C1.5 19.3978 1.65804 19.7794 1.93934 20.0607C2.22064 20.342 2.60218 20.5 3 20.5C3.39782 20.5 3.77936 20.342 4.06066 20.0607C4.34196 19.7794 4.5 19.3978 4.5 19V13C4.5 12.6022 4.34196 12.2206 4.06066 11.9393C3.77936 11.658 3.39782 11.5 3 11.5ZM11 1.5C10.6022 1.5 10.2206 1.65804 9.93934 1.93934C9.65804 2.22064 9.5 2.60218 9.5 3V19C9.5 19.3978 9.65804 19.7794 9.93934 20.0607C10.2206 20.342 10.6022 20.5 11 20.5C11.3978 20.5 11.7794 20.342 12.0607 20.0607C12.342 19.7794 12.5 19.3978 12.5 19V3C12.5 2.60218 12.342 2.22064 12.0607 1.93934C11.7794 1.65804 11.3978 1.5 11 1.5ZM19 6.5C18.6022 6.5 18.2206 6.65804 17.9393 6.93934C17.658 7.22064 17.5 7.60218 17.5 8V19C17.5 19.3978 17.658 19.7794 17.9393 20.0607C18.2206 20.342 18.6022 20.5 19 20.5C19.3978 20.5 19.7794 20.342 20.0607 20.0607C20.342 19.7794 20.5 19.3978 20.5 19V8C20.5 7.60218 20.342 7.22064 20.0607 6.93934C19.7794 6.65804 19.3978 6.5 19 6.5Z" fill="#4D4D4D"/>
</svg>
