<svg width="28" height="28" viewBox="0 0 28 28" fill="none" xmlns="http://www.w3.org/2000/svg">
<path d="M10.5 16.9163H15.1667M10.5 11.083H19.8333" stroke="#4D4D4D" stroke-width="1.5" stroke-linecap="round"/>
<path d="M4.6665 11.6663C4.6665 7.26656 4.6665 5.06668 6.03334 3.69984C7.40018 2.33301 9.60006 2.33301 13.9998 2.33301H15.7498C20.1496 2.33301 22.3496 2.33301 23.7163 3.69984C25.0832 5.06668 25.0832 7.26656 25.0832 11.6663V16.333C25.0832 20.7327 25.0832 22.9327 23.7163 24.2995C22.3496 25.6663 20.1496 25.6663 15.7498 25.6663H13.9998C9.60006 25.6663 7.40018 25.6663 6.03334 24.2995C4.6665 22.9327 4.6665 20.7327 4.6665 16.333V11.6663Z" stroke="#4D4D4D" stroke-width="1.5"/>
<path d="M5.83332 7H2.91666M5.83332 14H2.91666M5.83332 21H2.91666" stroke="#4D4D4D" stroke-width="1.5" stroke-linecap="round" stroke-linejoin="round"/>
</svg>
