<svg width="22" height="21" viewBox="0 0 22 21" fill="none" xmlns="http://www.w3.org/2000/svg">
<path d="M7.25 14.75C7.94863 13.5423 9.25446 12.7297 10.75 12.7297C12.2456 12.7297 13.5514 13.5423 14.25 14.75M12.7501 8.25C12.7501 9.3546 11.8546 10.25 10.7501 10.25C9.64546 10.25 8.75003 9.3546 8.75003 8.25C8.75003 7.14543 9.64546 6.25 10.7501 6.25C11.8546 6.25 12.7501 7.14543 12.7501 8.25Z" stroke="#4D4D4D" stroke-width="1.5" stroke-linecap="round"/>
<path d="M20.75 12.2169V8.2832C17.8933 8.2832 16.0357 5.18041 17.482 2.71691L14.0179 0.7501C12.5538 3.24405 8.9478 3.24395 7.48363 0.75L4.01953 2.71681C5.46586 5.18035 3.60673 8.2832 0.75 8.2832V12.2169C3.60668 12.2169 5.46425 15.3197 4.01795 17.7832L7.48205 19.75C8.9469 17.2548 12.5546 17.2547 14.0195 19.7499L17.4836 17.7831C16.0374 15.3196 17.8934 12.2169 20.75 12.2169Z" stroke="#4D4D4D" stroke-width="1.5" stroke-linecap="round" stroke-linejoin="round"/>
</svg>
