<svg width="28" height="28" viewBox="0 0 28 28" fill="none" xmlns="http://www.w3.org/2000/svg">
<path d="M25.6668 13.9997C25.6668 7.55635 20.4434 2.33301 14.0002 2.33301C7.55684 2.33301 2.3335 7.55635 2.3335 13.9997C2.3335 20.4429 7.55684 25.6663 14.0002 25.6663C20.4434 25.6663 25.6668 20.4429 25.6668 13.9997Z" stroke="#4D4D4D" stroke-width="1.5"/>
<path d="M21 14C21 17.866 17.866 21 14 21C10.134 21 7 17.866 7 14C7 10.134 10.134 7 14 7C15.0968 7 16.1345 7.25222 17.0586 7.70182C17.8904 8.1065 18.3063 8.30884 18.4058 8.90177C18.5053 9.49471 18.1035 9.89653 17.2998 10.7002L14 14" stroke="#4D4D4D" stroke-width="1.5" stroke-linecap="round" stroke-linejoin="round"/>
</svg>
