<svg width="21" height="21" viewBox="0 0 21 21" fill="none" xmlns="http://www.w3.org/2000/svg">
<path d="M13.25 13.25L14.75 14.75" stroke="#909090" stroke-width="1.5" stroke-linecap="round" stroke-linejoin="round"/>
<path d="M15.1833 17.2752C14.6056 16.6975 14.6056 15.7609 15.1833 15.1833C15.7609 14.6056 16.6975 14.6056 17.2752 15.1833L19.3167 17.2248C19.8944 17.8025 19.8944 18.7391 19.3167 19.3167C18.7391 19.8944 17.8025 19.8944 17.2248 19.3167L15.1833 17.2752Z" stroke="#909090" stroke-width="1.5" stroke-linecap="round" stroke-linejoin="round"/>
<path d="M14.75 7.75C14.75 3.88401 11.616 0.75 7.75 0.75C3.88401 0.75 0.75 3.88401 0.75 7.75C0.75 11.616 3.88401 14.75 7.75 14.75C11.616 14.75 14.75 11.616 14.75 7.75Z" stroke="#909090" stroke-width="1.5" stroke-linecap="round" stroke-linejoin="round"/>
</svg>
