<svg width="21" height="21" viewBox="0 0 21 21" fill="none" xmlns="http://www.w3.org/2000/svg">
<path d="M7.35205 5.25H9.45205V10.5H14.7021V12.6H7.35205V5.25Z" fill="#4D4D4D"/>
<path fill-rule="evenodd" clip-rule="evenodd" d="M21 10.5C21 16.2991 16.2991 21 10.5 21C4.70085 21 0 16.2991 0 10.5C0 4.70085 4.70085 0 10.5 0C16.2991 0 21 4.70085 21 10.5ZM18.9 10.5C18.9 12.7278 18.015 14.8644 16.4397 16.4397C14.8644 18.015 12.7278 18.9 10.5 18.9C8.27218 18.9 6.13561 18.015 4.5603 16.4397C2.985 14.8644 2.1 12.7278 2.1 10.5C2.1 8.27218 2.985 6.13561 4.5603 4.5603C6.13561 2.985 8.27218 2.1 10.5 2.1C12.7278 2.1 14.8644 2.985 16.4397 4.5603C18.015 6.13561 18.9 8.27218 18.9 10.5Z" fill="#4D4D4D"/>
</svg>
