<svg width="28" height="28" viewBox="0 0 28 28" fill="none" xmlns="http://www.w3.org/2000/svg">
<path d="M5.03769 22.9623C3.5 21.4247 3.5 18.9497 3.5 14C3.5 9.05025 3.5 6.57538 5.03769 5.03769C6.57538 3.5 9.05025 3.5 14 3.5C18.9497 3.5 21.4247 3.5 22.9623 5.03769C24.5 6.57538 24.5 9.05025 24.5 14C24.5 18.9497 24.5 21.4247 22.9623 22.9623C21.4247 24.5 18.9497 24.5 14 24.5C9.05025 24.5 6.57538 24.5 5.03769 22.9623Z" stroke="#4D4D4D" stroke-width="1.5" stroke-linecap="round" stroke-linejoin="round"/>
<path d="M8.1665 16.3337L11.4249 13.0753C11.8805 12.6197 12.6192 12.6197 13.0748 13.0753L14.9249 14.9254C15.3805 15.381 16.1192 15.381 16.5748 14.9254L19.8332 11.667" stroke="#4D4D4D" stroke-width="1.5" stroke-linecap="round" stroke-linejoin="round"/>
</svg>
