<svg width="37" height="37" viewBox="0 0 37 37" fill="none" xmlns="http://www.w3.org/2000/svg">
<path d="M3.73959 32.7604C1.25 30.2709 1.25 26.2638 1.25 18.25C1.25 10.2361 1.25 6.22919 3.73959 3.73959C6.22919 1.25 10.2361 1.25 18.25 1.25C26.2638 1.25 30.2709 1.25 32.7604 3.73959C35.25 6.22919 35.25 10.2361 35.25 18.25C35.25 26.2638 35.25 30.2709 32.7604 32.7604C30.2709 35.25 26.2638 35.25 18.25 35.25C10.2361 35.25 6.22919 35.25 3.73959 32.7604Z" stroke="#00A0E3" stroke-width="2.5" stroke-linecap="round" stroke-linejoin="round"/>
<path d="M8.80528 22.0277L14.0807 16.7522C14.8184 16.0146 16.0144 16.0146 16.752 16.7522L19.7474 19.7476C20.485 20.4853 21.6811 20.4853 22.4187 19.7476L27.6942 14.4722" stroke="#00A0E3" stroke-width="2.5" stroke-linecap="round" stroke-linejoin="round"/>
</svg>
