<svg width="37" height="37" viewBox="0 0 37 37" fill="none" xmlns="http://www.w3.org/2000/svg">
<path d="M17.3215 37C17.3215 37 43.094 36.4824 35.6503 11.639C35.6503 11.639 35.3766 28.2139 17.3215 37Z" fill="#94C21A"/>
<path d="M0.778623 14.6561C1.41739 10.9574 2.97603 8.42815 5.04144 6.42545C7.10686 4.42275 9.6772 2.95446 12.4466 2.04938C15.216 1.1443 18.164 0.871674 21.0603 1.25282C23.9565 1.63397 26.9734 2.72934 29.393 4.3173L26.6945 7.64995C24.8459 6.43672 22.7151 5.6184 20.5023 5.32719C18.2895 5.03599 16.061 5.2795 13.9451 5.971C11.8293 6.6625 9.83901 8.00085 8.26099 9.53095C6.68298 11.061 5.49203 12.9597 4.78072 15.0096L0.778623 14.6561Z" fill="#00A0E3"/>
<path d="M24.2373 12.5732C13.2151 19.8949 0.152888 16.6759 0.152888 16.6759C0.152888 16.7222 0.126816 16.7642 0.0746714 17.0293C0.0306975 17.2529 -0.0687263 19.3268 0.0746714 20.9301C0.189389 22.2126 0.5657 24.0523 0.765587 24.8434C14.5943 24.9545 23.6136 19.5877 26.3946 16.8905C31.205 12.5732 34.9073 5.07472 33.9687 0C32.8867 5.85739 28.0825 9.96828 24.2373 12.5732Z" fill="#00A0E3"/>
<path d="M5.83666 32.0389C3.75088 30.6755 2.1735 27.709 2.1735 27.709C26.3686 26.6991 33.721 12.2828 33.721 12.2828C27.4897 29.3122 5.83666 32.0389 5.83666 32.0389Z" fill="#94C21A"/>
</svg>
