<svg width="26" height="26" viewBox="0 0 26 26" fill="none" xmlns="http://www.w3.org/2000/svg">
<path fill-rule="evenodd" clip-rule="evenodd" d="M8.45665 8.33481C8.42147 8.3276 8.38511 8.32898 8.35054 8.33883C8.31598 8.34867 8.2842 8.36671 8.25778 8.39147C8.23137 8.41623 8.21108 8.447 8.19858 8.48128C8.18607 8.51556 8.1817 8.55236 8.18582 8.58869C8.08832 9.20572 7.9594 9.82275 7.80774 10.4287C7.43941 11.8615 6.96383 13.2843 6.59658 14.706C6.48825 15.1365 6.17409 15.7094 6.05492 16.2381C5.97909 16.5306 5.97909 16.8386 6.05492 17.1322C6.25859 17.6113 6.62258 18.002 7.08408 18.2338C8.00924 18.6444 8.98423 18.9292 9.98305 19.0827C10.7078 19.2482 11.4217 19.4138 12.1465 19.5463C12.6339 19.6456 13.1312 19.7229 13.6176 19.7891C14.0018 19.8509 14.3879 19.8693 14.7757 19.8443C15.0996 19.8112 15.4073 19.6842 15.6629 19.48C16.0204 19.1467 16.2891 18.725 16.4418 18.2548C16.6946 17.3158 16.8932 16.3643 17.0377 15.4003C17.2532 14.5736 17.7072 12.909 17.9238 12.0933C18.016 11.766 18.0741 11.4297 18.0972 11.0899C18.1112 10.8015 18.0353 10.516 17.8805 10.2742C17.6746 9.99818 17.4077 9.77545 17.1016 9.62406C16.7109 9.42439 16.3015 9.26538 15.8796 9.14942C15.218 8.92645 14.5471 8.73917 13.8668 8.58758C12.2873 8.26748 10.6211 8.07983 9.08498 7.7829C9.01363 7.77243 8.941 7.78917 8.88102 7.82991C8.82104 7.87065 8.77793 7.93253 8.75998 8.00366C8.74708 8.07669 8.76243 8.15198 8.80283 8.21372C8.84323 8.27546 8.90552 8.31886 8.97665 8.33481C9.63639 8.4783 10.307 8.59972 10.9775 8.7101C10.815 9.37019 10.6417 10.0214 10.4695 10.6716L8.30607 10.4729C8.43607 9.85476 8.55523 9.23883 8.63107 8.60966C8.6412 8.54992 8.62903 8.48847 8.59695 8.43741C8.56488 8.38635 8.51522 8.34935 8.45773 8.3337M7.59216 13.515C8.29769 13.5994 8.99845 13.721 9.69164 13.8793C9.69164 14.0327 9.61581 14.1762 9.58331 14.3307C9.50748 14.6619 9.44248 14.9919 9.36664 15.322C8.59857 15.2557 7.85216 15.2447 7.11658 15.2557C7.17074 15.1012 7.22491 14.9467 7.25741 14.8153C7.35491 14.3848 7.47408 13.9554 7.59324 13.5139M6.81433 16.8209C6.73998 16.6067 6.73998 16.3729 6.81433 16.1586C6.81433 16.0372 6.87933 15.9268 6.92266 15.8054L8.27574 16.0041L9.16298 16.1807C9.05465 16.6664 8.93548 17.1521 8.80548 17.6256C8.7907 17.6845 8.79544 17.7468 8.81894 17.8027C8.84245 17.8585 8.88342 17.905 8.93548 17.9347C8.56801 17.8627 8.20628 17.7631 7.85324 17.6367C7.63012 17.5837 7.42084 17.4824 7.23968 17.3395C7.05851 17.1966 6.90974 17.0156 6.8035 16.8088L6.81433 16.8209ZM15.1668 18.7162C15.0114 18.825 14.8254 18.8793 14.637 18.8707C14.3688 18.8722 14.1009 18.85 13.8364 18.8045C13.2389 18.7252 12.6436 18.6295 12.0511 18.5175C11.456 18.4071 10.8392 18.2861 10.2008 18.1543C9.89747 18.0881 9.50856 18.0329 9.11965 17.9557C9.17281 17.9573 9.22521 17.9424 9.26976 17.9128C9.31432 17.8832 9.34889 17.8403 9.36881 17.7901C9.55297 17.2945 9.73606 16.8099 9.90939 16.3132L10.8508 16.4788C12.1378 16.7106 13.4464 16.9313 14.6587 17.2293C14.6928 17.2395 14.7286 17.2427 14.764 17.2387C14.7993 17.2348 14.8336 17.2238 14.8647 17.2064C14.8959 17.189 14.9234 17.1655 14.9457 17.1372C14.968 17.1089 14.9846 17.0765 14.9945 17.0417C15.0146 16.9894 15.0171 16.9317 15.0017 16.8778C14.9862 16.8239 14.9536 16.7767 14.9089 16.7437C14.8802 16.7207 14.8463 16.7055 14.8103 16.6995C13.9329 16.3684 13.0142 16.0593 12.062 15.8054C11.6611 15.695 11.2614 15.6078 10.8508 15.5306C10.6341 15.5306 10.4175 15.4643 10.19 15.4312C10.2766 15.1663 10.3633 14.9124 10.4391 14.6597C10.515 14.4058 10.5475 14.2623 10.5908 14.0746L11.2408 14.2181L12.7109 14.5493C13.8906 14.8142 15.0595 15.0902 16.184 15.3992C16.0648 16.0163 15.9673 16.8099 15.7615 17.5373C15.6728 17.9783 15.4671 18.386 15.1668 18.7162ZM16.2501 14.8363C15.3509 14.4831 14.4204 14.1298 13.4692 13.8329C13.025 13.7004 12.5917 13.579 12.1378 13.4686C11.6839 13.3583 11.2397 13.281 10.7858 13.2148C10.8833 12.7744 10.9808 12.345 11.0566 11.9034C11.061 11.8041 11.061 11.7048 11.0566 11.6054L12.57 11.9476L14.1289 12.2567L16.8546 12.7975L16.2501 14.8363ZM13.7368 9.24987C14.3976 9.4044 15.0573 9.58101 15.7063 9.78964C16.0782 9.91032 16.4389 10.0612 16.7885 10.2422C16.977 10.3449 17.1427 10.4872 17.2749 10.6605C17.3377 10.7706 17.3643 10.8982 17.3507 11.0248C17.3211 11.3022 17.2634 11.5738 17.1774 11.8394L17.0691 12.1706C16.1493 11.8836 15.2296 11.5966 14.2882 11.3659C13.5475 11.1809 12.8006 11.0226 12.049 10.8912L11.2159 10.7809C11.3134 10.1197 11.4 9.45849 11.4867 8.80834C12.2331 8.9408 13.0012 9.0843 13.7368 9.24987ZM10.0806 12.1706C10.0047 12.4796 9.92889 12.8108 9.86389 13.1298C9.14425 13.0632 8.42201 13.0301 7.69941 13.0304C7.88357 12.3461 8.04607 11.6639 8.20857 10.9807L10.2745 11.4211L10.0806 12.1706ZM17.653 6.96718C17.43 6.94051 17.2095 6.89622 16.9932 6.83472C17.0799 6.61396 17.2099 6.36008 17.3291 6.08523C17.9466 4.6856 18.3355 3.17558 17.3291 2.05079C17.3063 2.02252 17.2783 1.9991 17.2467 1.98186C17.215 1.96463 17.1804 1.95391 17.1446 1.95032C17.0725 1.94307 17.0005 1.96532 16.9445 2.01216C16.8885 2.059 16.853 2.1266 16.8459 2.20008C16.8388 2.27357 16.8606 2.34693 16.9066 2.40401C17.9888 3.86988 16.2468 5.50132 15.9013 6.81265C15.5557 8.12398 18.8761 8.13612 20.0656 7.75089L21.8509 7.24314C22.3059 7.03341 22.035 6.49254 21.7642 6.54773C19.5575 7.09964 19.4925 7.24314 17.653 6.96718Z" fill="#4D4D4D"/>
<path fill-rule="evenodd" clip-rule="evenodd" d="M18.5185 1.28926C17.1449 1.00337 17.7721 1.16894 8.56495 0C8.48927 0.00141421 8.41663 0.0306249 8.36039 0.0822594C8.30416 0.133894 8.26812 0.20448 8.25889 0.281034C8.24966 0.357589 8.26787 0.434964 8.31017 0.498927C8.35247 0.562891 8.41602 0.609143 8.48912 0.629174C17.0582 1.79701 17.329 1.80805 18.4102 2.05089C19.4935 2.29373 21.7967 5.28065 22.3492 6.38336C22.4745 6.57979 22.5352 6.81174 22.5225 7.04565C22.23 8.60975 21.0286 13.1519 20.6722 14.1873C20.3147 15.2249 19.9897 15.9744 19.6983 16.8895C19.5791 17.2427 18.616 21.5409 17.3832 21.9604C15.6846 22.5443 13.9534 21.7948 12.2548 21.7286C11.1725 21.7286 9.00912 21.5741 7.62354 21.3533C2.21451 20.4603 2.45284 20.5817 1.06726 19.6777C2.62508 17.9911 4.06482 13.769 4.84373 11.3549C5.52435 8.62826 6.0517 5.86423 6.42322 3.07633C6.50989 2.59065 7.27796 0.0883052 6.50989 0.342182C6.18489 0.441526 6.22822 0.938242 6.19572 1.14686C5.97906 2.52442 5.03873 7.8713 4.84373 8.75325C4.01454 12.0549 2.75538 15.2285 1.09976 18.1898C0.898988 18.4768 0.682685 18.7523 0.450853 19.0165C0.277521 19.1931 0.133078 19.3918 0.0175237 19.6126C-0.0157489 19.7687 -0.00141496 19.9314 0.0586057 20.079C0.118626 20.2265 0.221467 20.3519 0.353354 20.4382C0.939433 20.8908 1.59376 21.2451 2.29034 21.4869C5.54031 22.2397 8.84986 22.7044 12.1789 22.8755C13.8992 22.9417 15.7171 23.7353 17.6855 23.0521C19.4816 22.4229 20.4339 17.9248 20.6288 17.2968C20.9105 16.3817 21.268 15.4998 21.5594 14.5957C21.8519 13.6917 23.0522 9.08439 23.3556 7.28738C23.6481 5.68906 19.9041 1.58729 18.5185 1.29036" fill="#4D4D4D"/>
<path fill-rule="evenodd" clip-rule="evenodd" d="M25.0653 8.12394C24.7619 9.68915 23.15 15.9169 22.7925 16.9434C22.435 17.9678 22.1111 18.7393 21.8186 19.6544C21.6994 20.0076 20.7374 24.2959 19.5035 24.7143C17.8048 25.2993 16.0737 24.5487 14.375 24.4825C13.2939 24.4825 11.1294 24.3279 9.74491 24.1083C4.58395 23.2594 4.56229 23.4791 3.3728 22.7086C2.66864 22.3113 2.39781 23.0177 2.8203 23.3919C3.29697 23.7672 3.85271 24.0277 4.44312 24.1524C7.69318 24.9106 11.0019 25.379 14.3317 25.5521C16.052 25.6183 17.8807 26.402 19.8393 25.7287C21.798 25.0565 22.5877 20.6026 22.7383 19.9635C23.02 19.0594 23.3775 18.1775 23.67 17.2735C23.9614 16.3694 25.66 10.1406 25.9839 8.37672C26.1248 7.48483 25.2809 7.21992 25.0653 8.12284" fill="#4D4D4D"/>
</svg>
